# Blender v2.78 (sub 0) OBJ File: 'Rock1.blend'
# www.blender.org
o Plane
v 0.000000 0.000000 -1.063593
v -0.654081 0.000000 -0.346458
v -0.866025 0.065726 0.091444
v 0.000000 0.000000 0.861679
v 0.654399 0.000000 0.500000
v 0.866025 0.131992 -0.500000
v -0.668201 0.240291 -0.421050
v 0.076229 0.240291 -1.156434
v -0.847383 0.564238 0.276573
v -0.031788 0.240291 0.916349
v 0.693043 0.240291 0.563674
v 0.976988 0.382588 -0.501072
v -0.657349 0.656174 0.018752
v 0.264259 0.731074 -0.548370
v -0.016014 0.564855 0.756980
v 0.590886 0.484742 0.443527
vt 0.0030 0.3389
vt 0.0061 0.0505
vt 0.3147 0.0030
vt 0.4674 0.2677
vt 0.3929 0.4773
vt 0.0436 0.4773
vt 0.2064 0.4833
vt 0.2398 0.8098
vt 0.0030 0.8098
vt 0.1375 0.5221
vt 0.9186 0.2270
vt 0.9160 0.0049
vt 0.9916 0.0030
vt 0.9916 0.2425
vt 0.8366 0.2489
vt 0.7931 0.1103
vt 0.9100 0.0030
vt 0.9100 0.2372
vt 0.9041 0.6550
vt 0.8991 0.3487
vt 0.9793 0.3306
vt 0.9793 0.6608
vt 0.2458 0.8211
vt 0.3172 0.4833
vt 0.3905 0.4986
vt 0.4063 0.8211
vt 0.7349 0.9617
vt 0.7327 0.6733
vt 0.8072 0.6861
vt 0.8072 0.9970
vt 0.8191 0.6401
vt 0.8132 0.3306
vt 0.8930 0.3420
vt 0.8930 0.6757
vt 0.7871 0.3247
vt 0.4951 0.2806
vt 0.4734 0.0784
vt 0.7871 0.0030
vt 0.8072 0.3474
vt 0.8072 0.6673
vt 0.7196 0.6194
vt 0.7182 0.3306
vt 0.4734 0.6905
vt 0.5396 0.3869
vt 0.7121 0.3306
vt 0.7121 0.6526
vt 0.4734 0.9354
vt 0.7100 0.6965
vt 0.7131 0.9354
vt 0.9191 0.6816
vt 0.9191 0.9211
vt 0.8326 0.9097
vt 0.8132 0.7063
vt 0.9970 0.6816
vt 0.9970 0.9164
vt 0.9252 0.8471
vn 0.0314 -0.9995 -0.0107
vn 0.5631 0.8141 0.1421
vn 0.4487 -0.2197 0.8663
vn -0.9378 0.0570 -0.3426
vn 0.9336 -0.3079 0.1832
vn -0.6557 -0.2436 0.7147
vn -0.7126 -0.1469 -0.6861
vn 0.5672 -0.3582 -0.7416
vn 0.0864 0.9858 0.1441
vn -0.3346 0.7443 0.5780
vn -0.4497 0.7159 -0.5341
vn 0.3681 0.6646 -0.6502
vn 0.4209 0.4506 0.7873
vn -0.7853 0.4594 -0.4150
s off
f 2/1/1 1/2/1 6/3/1 5/4/1 4/5/1 3/6/1
f 11/7/2 12/8/2 14/9/2 16/10/2
f 4/11/3 5/12/3 11/13/3 10/14/3
f 2/15/4 3/16/4 9/17/4 7/18/4
f 5/19/5 6/20/5 12/21/5 11/22/5
f 3/23/6 4/24/6 10/25/6 9/26/6
f 1/27/7 2/28/7 7/29/7 8/30/7
f 6/31/8 1/32/8 8/33/8 12/34/8
f 13/35/9 15/36/9 16/37/9 14/38/9
f 9/39/10 10/40/10 15/41/10 13/42/10
f 8/43/11 7/44/11 13/45/11 14/46/11
f 12/47/12 8/48/12 14/49/12
f 10/50/13 11/51/13 16/52/13 15/53/13
f 7/54/14 9/55/14 13/56/14
